<mxfile host="app.diagrams.net" modified="2023-04-23T14:49:27.511Z" agent="Mozilla/5.0 (Windows NT 10.0; Win64; x64) AppleWebKit/537.36 (KHTML, like Gecko) Chrome/112.0.0.0 Safari/537.36" version="21.2.1" etag="QV3NQwiutwXrm4uMwEb0" type="github">
  <diagram name="Trang-1" id="3IFnCFHrGnpjIKyX0TY2">
    <mxGraphModel>
      <root>
        <mxCell id="0" />
        <mxCell id="1" parent="0" />
      </root>
    </mxGraphModel>
  </diagram>
</mxfile>
